<svg width="20" height="29" viewBox="0 0 20 29" fill="none" xmlns="http://www.w3.org/2000/svg">
<path d="M17.4438 17.7083C17.4438 13.597 14.1113 10.2645 10 10.2645C5.88877 10.2645 2.55627 13.597 2.55627 17.7083H17.4438Z" stroke="black" stroke-linecap="round" stroke-linejoin="round"/>
<path d="M10.1717 10.27C12.3748 10.27 14.1608 8.48395 14.1608 6.28079C14.1608 4.07764 12.3748 2.29163 10.1717 2.29163C7.96851 2.29163 6.1825 4.07764 6.1825 6.28079C6.1825 8.48395 7.96851 10.27 10.1717 10.27Z" stroke="black" stroke-linecap="round" stroke-linejoin="round"/>
<path d="M4.4858 22.1818H5.3267L7.30398 27.0114H7.37216L9.34943 22.1818H10.1903V28H9.53125V23.5795H9.47443L7.65625 28H7.01989L5.2017 23.5795H5.14489V28H4.4858V22.1818ZM11.103 22.1818H11.9098L13.5234 24.8977H13.5916L15.2053 22.1818H16.0121L13.9098 25.6023V28H13.2053V25.6023L11.103 22.1818Z" fill="black"/>
</svg>
