<svg width="24" height="24" viewBox="0 0 24 24" fill="none" xmlns="http://www.w3.org/2000/svg">
<path d="M19.6 20.2929L13.6536 14.3464L13.3371 14.03L12.9877 14.3096C12.534 14.6725 12.0082 14.9632 11.4061 15.1794C10.8135 15.3921 10.1793 15.5 9.5 15.5C7.81289 15.5 6.4037 14.9212 5.24165 13.7585C4.07948 12.5958 3.50066 11.1865 3.5 9.5L19.6 20.2929ZM19.6 20.2929L20.2929 19.6L14.3464 13.6536L14.03 13.3371L14.3096 12.9877C14.6725 12.534 14.9632 12.0082 15.1794 11.4061C15.3921 10.8135 15.5 10.1793 15.5 9.5V9.49982C15.5006 7.81348 14.9222 6.4043 13.7594 5.24155C12.5967 4.07884 11.1872 3.50004 9.50018 3.5L19.6 20.2929ZM9.5 4.5H9.50027C10.8818 4.50074 12.072 4.98992 13.0416 5.95945C14.011 6.92892 14.4999 8.11881 14.5 9.49973C14.5 9.49982 14.5 9.49991 14.5 9.5H14C14.0007 10.7507 13.5633 11.8133 12.688 12.688L9.5 4.5ZM9.5 4.5C8.11884 4.5 6.92882 4.98933 5.95931 5.95958C4.99002 6.92961 4.50074 8.11938 4.5 9.49973V9.5C4.5 10.8812 4.98932 12.0714 5.95945 13.0416C6.92958 14.0117 8.11961 14.5007 9.50027 14.5L9.5 4.5ZM3.5 9.49982C3.50004 7.81278 4.07883 6.40366 5.24146 5.24165C6.40424 4.07948 7.81354 3.50066 9.5 3.5L3.5 9.49982Z" fill="white" stroke="white"/>
</svg>
