<svg width="24" height="29" viewBox="0 0 24 29" fill="none" xmlns="http://www.w3.org/2000/svg">
<path d="M1 1.875C1 1.70924 1.06585 1.55027 1.18306 1.43306C1.30027 1.31585 1.45924 1.25 1.625 1.25H3.5C3.63941 1.25004 3.77481 1.29669 3.88466 1.38253C3.99452 1.46837 4.07251 1.58848 4.10625 1.72375L4.6125 3.75H19.125C19.2168 3.75008 19.3074 3.77038 19.3904 3.80944C19.4735 3.8485 19.5469 3.90537 19.6055 3.976C19.6641 4.04664 19.7064 4.12931 19.7294 4.21815C19.7524 4.30698 19.7556 4.3998 19.7388 4.49L17.8638 14.49C17.8369 14.6332 17.7609 14.7626 17.6489 14.8557C17.5368 14.9488 17.3957 14.9999 17.25 15H6C5.85429 14.9999 5.71321 14.9488 5.60114 14.8557C5.48907 14.7626 5.41306 14.6332 5.38625 14.49L3.5125 4.50875L3.0125 2.5H1.625C1.45924 2.5 1.30027 2.43415 1.18306 2.31694C1.06585 2.19973 1 2.04076 1 1.875ZM4.8775 5L6.51875 13.75H16.7312L18.3725 5H4.8775ZM7.25 15C6.58696 15 5.95107 15.2634 5.48223 15.7322C5.01339 16.2011 4.75 16.837 4.75 17.5C4.75 18.163 5.01339 18.7989 5.48223 19.2678C5.95107 19.7366 6.58696 20 7.25 20C7.91304 20 8.54893 19.7366 9.01777 19.2678C9.48661 18.7989 9.75 18.163 9.75 17.5C9.75 16.837 9.48661 16.2011 9.01777 15.7322C8.54893 15.2634 7.91304 15 7.25 15ZM16 15C15.337 15 14.7011 15.2634 14.2322 15.7322C13.7634 16.2011 13.5 16.837 13.5 17.5C13.5 18.163 13.7634 18.7989 14.2322 19.2678C14.7011 19.7366 15.337 20 16 20C16.663 20 17.2989 19.7366 17.7678 19.2678C18.2366 18.7989 18.5 18.163 18.5 17.5C18.5 16.837 18.2366 16.2011 17.7678 15.7322C17.2989 15.2634 16.663 15 16 15ZM7.25 16.25C7.58152 16.25 7.89946 16.3817 8.13388 16.6161C8.3683 16.8505 8.5 17.1685 8.5 17.5C8.5 17.8315 8.3683 18.1495 8.13388 18.3839C7.89946 18.6183 7.58152 18.75 7.25 18.75C6.91848 18.75 6.60054 18.6183 6.36612 18.3839C6.1317 18.1495 6 17.8315 6 17.5C6 17.1685 6.1317 16.8505 6.36612 16.6161C6.60054 16.3817 6.91848 16.25 7.25 16.25ZM16 16.25C16.3315 16.25 16.6495 16.3817 16.8839 16.6161C17.1183 16.8505 17.25 17.1685 17.25 17.5C17.25 17.8315 17.1183 18.1495 16.8839 18.3839C16.6495 18.6183 16.3315 18.75 16 18.75C15.6685 18.75 15.3505 18.6183 15.1161 18.3839C14.8817 18.1495 14.75 17.8315 14.75 17.5C14.75 17.1685 14.8817 16.8505 15.1161 16.6161C15.3505 16.3817 15.6685 16.25 16 16.25Z" fill="black"/>
<path d="M6.64808 24H5.94354C5.90187 23.7973 5.82895 23.6193 5.72479 23.4659C5.62251 23.3125 5.49751 23.1837 5.34979 23.0795C5.20395 22.9735 5.04202 22.8939 4.86399 22.8409C4.68596 22.7879 4.50036 22.7614 4.30717 22.7614C3.9549 22.7614 3.63577 22.8504 3.34979 23.0284C3.0657 23.2064 2.83937 23.4688 2.67081 23.8153C2.50414 24.1619 2.42081 24.5871 2.42081 25.0909C2.42081 25.5947 2.50414 26.0199 2.67081 26.3665C2.83937 26.7131 3.0657 26.9754 3.34979 27.1534C3.63577 27.3314 3.9549 27.4205 4.30717 27.4205C4.50036 27.4205 4.68596 27.3939 4.86399 27.3409C5.04202 27.2879 5.20395 27.2093 5.34979 27.1051C5.49751 26.9991 5.62251 26.8693 5.72479 26.7159C5.82895 26.5606 5.90187 26.3826 5.94354 26.1818H6.64808C6.59505 26.4792 6.49846 26.7453 6.35831 26.9801C6.21816 27.215 6.04392 27.4148 5.83558 27.5795C5.62725 27.7424 5.39335 27.8665 5.13388 27.9517C4.8763 28.0369 4.60073 28.0795 4.30717 28.0795C3.81096 28.0795 3.36967 27.9583 2.98331 27.7159C2.59695 27.4735 2.29297 27.1288 2.07138 26.6818C1.84979 26.2348 1.73899 25.7045 1.73899 25.0909C1.73899 24.4773 1.84979 23.947 2.07138 23.5C2.29297 23.053 2.59695 22.7083 2.98331 22.4659C3.36967 22.2235 3.81096 22.1023 4.30717 22.1023C4.60073 22.1023 4.8763 22.1449 5.13388 22.2301C5.39335 22.3153 5.62725 22.4403 5.83558 22.6051C6.04392 22.768 6.21816 22.9669 6.35831 23.2017C6.49846 23.4347 6.59505 23.7008 6.64808 24ZM8.02521 28H7.28658L9.42294 22.1818H10.1502L12.2866 28H11.5479L9.8093 23.1023H9.76385L8.02521 28ZM8.29794 25.7273H11.2752V26.3523H8.29794V25.7273ZM13.1928 28V22.1818H15.1587C15.6133 22.1818 15.9864 22.2595 16.2781 22.4148C16.5697 22.5682 16.7856 22.7794 16.9258 23.0483C17.0659 23.3172 17.136 23.6231 17.136 23.9659C17.136 24.3087 17.0659 24.6127 16.9258 24.8778C16.7856 25.143 16.5707 25.3513 16.2809 25.5028C15.9911 25.6525 15.6209 25.7273 15.1701 25.7273H13.5792V25.0909H15.1474C15.458 25.0909 15.708 25.0455 15.8974 24.9545C16.0887 24.8636 16.2269 24.7348 16.3121 24.5682C16.3993 24.3996 16.4428 24.1989 16.4428 23.9659C16.4428 23.733 16.3993 23.5294 16.3121 23.3551C16.225 23.1809 16.0858 23.0464 15.8945 22.9517C15.7032 22.8551 15.4504 22.8068 15.136 22.8068H13.8974V28H13.1928ZM15.9315 25.3864L17.3633 28H16.5451L15.136 25.3864H15.9315ZM17.9918 22.8068V22.1818H22.3555V22.8068H20.5259V28H19.8214V22.8068H17.9918Z" fill="black"/>
</svg>
