<svg width="106" height="24" viewBox="0 0 106 24" fill="none" xmlns="http://www.w3.org/2000/svg">
<path d="M2.6875 4.26047C4.18094 3.63609 6.32238 2.96278 8.40475 2.75353C10.6491 2.5274 12.5526 2.85984 13.6562 4.02253V20.4689C12.0784 19.5745 10.0788 19.4513 8.23431 19.637C6.24306 19.8395 4.23494 20.4149 2.6875 21.0055V4.26047ZM15.3438 4.02253C16.4474 2.85984 18.3509 2.5274 20.5953 2.75353C22.6776 2.96278 24.8191 3.63609 26.3125 4.26047V21.0055C24.7634 20.4149 22.7569 19.8378 20.7657 19.6387C18.9196 19.4513 16.9216 19.5728 15.3438 20.4689V4.02253ZM14.5 2.49703C12.8378 1.06772 10.4281 0.855092 8.23431 1.07447C5.67944 1.33265 3.10094 2.20847 1.49444 2.93916C1.34703 3.0062 1.22203 3.11424 1.13436 3.25039C1.04669 3.38653 1.00004 3.54503 1 3.70697V22.2695C1.00004 22.4106 1.0355 22.5495 1.10314 22.6735C1.17077 22.7974 1.26842 22.9024 1.38713 22.9788C1.50584 23.0552 1.64183 23.1005 1.78263 23.1108C1.92344 23.121 2.06456 23.0957 2.19306 23.0373C3.68144 22.3623 6.07938 21.5506 8.40306 21.316C10.7808 21.0764 12.7737 21.4628 13.8419 22.796C13.9209 22.8945 14.0211 22.974 14.135 23.0287C14.2489 23.0833 14.3737 23.1117 14.5 23.1117C14.6263 23.1117 14.7511 23.0833 14.865 23.0287C14.9789 22.974 15.0791 22.8945 15.1581 22.796C16.2263 21.4628 18.2193 21.0764 20.5953 21.316C22.9206 21.5506 25.3203 22.3623 26.8069 23.0373C26.9354 23.0957 27.0766 23.121 27.2174 23.1108C27.3582 23.1005 27.4942 23.0552 27.6129 22.9788C27.7316 22.9024 27.8292 22.7974 27.8969 22.6735C27.9645 22.5495 28 22.4106 28 22.2695V3.70697C28 3.54503 27.9533 3.38653 27.8656 3.25039C27.778 3.11424 27.653 3.0062 27.5056 2.93916C25.8991 2.20847 23.3206 1.33265 20.7657 1.07447C18.5719 0.853405 16.1622 1.06772 14.5 2.49703Z" fill="black" stroke="black"/>
<path d="M36.94 19.2C36.5533 19.2 36.2733 19.14 36.1 19.02C35.9267 18.9133 35.8133 18.7667 35.76 18.58C35.72 18.3933 35.7 18.1933 35.7 17.98V6.44C35.7 6.21333 35.72 6.00667 35.76 5.82C35.8133 5.63333 35.92 5.48667 36.08 5.38C36.2533 5.27333 36.5333 5.22 36.92 5.22C37.2933 5.22 37.56 5.27333 37.72 5.38C37.8933 5.48667 38 5.63333 38.04 5.82C38.0933 6.00667 38.12 6.21333 38.12 6.44V17.04H44.22C44.42 17.04 44.6 17.06 44.76 17.1C44.92 17.1267 45.0467 17.22 45.14 17.38C45.2333 17.5267 45.28 17.7667 45.28 18.1C45.28 18.4333 45.2333 18.68 45.14 18.84C45.0467 18.9867 44.92 19.08 44.76 19.12C44.6 19.1733 44.42 19.2 44.22 19.2H36.94ZM48.0505 19.2C47.6905 19.2 47.4238 19.14 47.2505 19.02C47.0771 18.9133 46.9705 18.7733 46.9305 18.6C46.8905 18.4133 46.8705 18.2067 46.8705 17.98V10.54C46.8705 10.3267 46.8905 10.1333 46.9305 9.96C46.9838 9.77333 47.0905 9.62667 47.2505 9.52C47.4238 9.41333 47.6971 9.36 48.0705 9.36C48.4438 9.36 48.7105 9.41333 48.8705 9.52C49.0438 9.62667 49.1505 9.77333 49.1905 9.96C49.2305 10.1467 49.2505 10.3533 49.2505 10.58V18C49.2505 18.2267 49.2305 18.4333 49.1905 18.62C49.1505 18.7933 49.0438 18.9333 48.8705 19.04C48.7105 19.1467 48.4371 19.2 48.0505 19.2ZM48.0505 7.42C47.6638 7.42 47.3771 7.36667 47.1905 7.26C47.0171 7.14 46.9038 6.98 46.8505 6.78C46.8105 6.58 46.7905 6.36 46.7905 6.12C46.7905 5.86667 46.8105 5.64667 46.8505 5.46C46.9038 5.27333 47.0238 5.12667 47.2105 5.02C47.3971 4.9 47.6838 4.84 48.0705 4.84C48.4705 4.84 48.7571 4.9 48.9305 5.02C49.1038 5.14 49.2171 5.3 49.2705 5.5C49.3238 5.68667 49.3505 5.90667 49.3505 6.16C49.3505 6.38667 49.3238 6.6 49.2705 6.8C49.2171 7 49.1038 7.15333 48.9305 7.26C48.7571 7.36667 48.4638 7.42 48.0505 7.42ZM56.5784 19.18C55.9251 19.18 55.3384 19.0533 54.8184 18.8C54.3118 18.5333 53.8784 18.1733 53.5184 17.72C53.1718 17.2667 52.9051 16.7467 52.7184 16.16C52.5451 15.56 52.4584 14.92 52.4584 14.24C52.4718 13.56 52.5718 12.9267 52.7584 12.34C52.9451 11.74 53.2118 11.22 53.5584 10.78C53.9184 10.3267 54.3518 9.97333 54.8584 9.72C55.3651 9.46667 55.9384 9.34 56.5784 9.34C57.1918 9.34 57.7651 9.46667 58.2984 9.72C58.8451 9.97333 59.3251 10.3267 59.7384 10.78C60.1651 11.22 60.4984 11.74 60.7384 12.34C60.9784 12.9267 61.0984 13.5533 61.0984 14.22C61.0984 14.9133 60.9784 15.5667 60.7384 16.18C60.4984 16.78 60.1718 17.3067 59.7584 17.76C59.3451 18.2 58.8651 18.5467 58.3184 18.8C57.7718 19.0533 57.1918 19.18 56.5784 19.18ZM56.2584 16.84C56.7251 16.84 57.1451 16.7333 57.5184 16.52C57.8918 16.2933 58.1851 15.9867 58.3984 15.6C58.6251 15.2133 58.7384 14.7733 58.7384 14.28C58.7384 13.7733 58.6251 13.3267 58.3984 12.94C58.1851 12.54 57.8918 12.2333 57.5184 12.02C57.1451 11.7933 56.7251 11.68 56.2584 11.68C55.8051 11.68 55.3918 11.7933 55.0184 12.02C54.6451 12.2467 54.3451 12.5533 54.1184 12.94C53.9051 13.3267 53.7984 13.7733 53.7984 14.28C53.7984 14.7733 53.9051 15.2133 54.1184 15.6C54.3451 15.9867 54.6451 16.2933 55.0184 16.52C55.3918 16.7333 55.8051 16.84 56.2584 16.84ZM52.5584 19.2C52.1984 19.2 51.9318 19.14 51.7584 19.02C51.5851 18.9133 51.4784 18.7733 51.4384 18.6C51.3984 18.4133 51.3784 18.2067 51.3784 17.98V6.06C51.3784 5.83333 51.3984 5.63333 51.4384 5.46C51.4784 5.27333 51.5851 5.12667 51.7584 5.02C51.9318 4.91333 52.1984 4.86 52.5584 4.86C52.9318 4.86 53.1984 4.91333 53.3584 5.02C53.5184 5.12667 53.6184 5.27333 53.6584 5.46C53.6984 5.64667 53.7184 5.84667 53.7184 6.06V18.38C53.6651 18.6733 53.5518 18.88 53.3784 19C53.2184 19.1333 52.9451 19.2 52.5584 19.2ZM64.0833 19.2C63.7233 19.2 63.4566 19.14 63.2833 19.02C63.1233 18.9133 63.0233 18.7667 62.9833 18.58C62.9433 18.3933 62.9233 18.1867 62.9233 17.96V10.54C62.9233 10.3 62.9433 10.0933 62.9833 9.92C63.0233 9.73333 63.1233 9.59333 63.2833 9.5C63.4566 9.39333 63.7299 9.34 64.1033 9.34C64.4633 9.34 64.7233 9.38667 64.8833 9.48C65.0566 9.57333 65.1633 9.69333 65.2033 9.84C65.2566 9.97333 65.2833 10.1067 65.2833 10.24L65.1233 10.6C65.1899 10.4933 65.2833 10.3667 65.4033 10.22C65.5233 10.06 65.6833 9.90667 65.8833 9.76C66.0833 9.6 66.3233 9.47333 66.6033 9.38C66.8833 9.27333 67.2166 9.22 67.6033 9.22C67.7633 9.22 67.9299 9.24 68.1033 9.28C68.2899 9.30667 68.4699 9.35333 68.6433 9.42C68.8299 9.47333 68.9966 9.54667 69.1433 9.64C69.2899 9.73333 69.4033 9.84667 69.4833 9.98C69.5633 10.1 69.6033 10.24 69.6033 10.4C69.6033 10.8267 69.4966 11.1867 69.2833 11.48C69.0699 11.7733 68.8166 11.92 68.5233 11.92C68.3233 11.92 68.1766 11.9 68.0833 11.86C67.9899 11.82 67.9099 11.7733 67.8433 11.72C67.7899 11.6667 67.7033 11.62 67.5833 11.58C67.4766 11.54 67.3033 11.52 67.0633 11.52C66.8633 11.52 66.6566 11.5533 66.4433 11.62C66.2433 11.6867 66.0566 11.7867 65.8833 11.92C65.7099 12.0533 65.5699 12.2267 65.4633 12.44C65.3566 12.64 65.3033 12.8733 65.3033 13.14V18C65.3033 18.2267 65.2833 18.4333 65.2433 18.62C65.2033 18.7933 65.0966 18.9333 64.9233 19.04C64.7499 19.1467 64.4699 19.2 64.0833 19.2ZM78.6033 19.16C78.2166 19.16 77.9299 19.0867 77.7433 18.94C77.5566 18.7933 77.4633 18.5933 77.4633 18.34L77.6033 17.68C77.4966 17.8533 77.3166 18.06 77.0633 18.3C76.8099 18.5267 76.4766 18.7333 76.0633 18.92C75.6499 19.0933 75.1499 19.18 74.5633 19.18C73.9366 19.18 73.3433 19.0533 72.7833 18.8C72.2366 18.5333 71.7499 18.1733 71.3233 17.72C70.9099 17.2533 70.5766 16.7267 70.3233 16.14C70.0833 15.54 69.9633 14.9 69.9633 14.22C69.9633 13.5667 70.0833 12.9533 70.3233 12.38C70.5766 11.7933 70.9166 11.2733 71.3433 10.82C71.7699 10.3667 72.2566 10.0133 72.8033 9.76C73.3633 9.49333 73.9499 9.36 74.5633 9.36C75.1099 9.36 75.5699 9.43333 75.9433 9.58C76.3299 9.72667 76.6566 9.91333 76.9233 10.14C77.1899 10.3533 77.4099 10.58 77.5833 10.82L77.4633 10.24C77.4633 9.94667 77.5566 9.72667 77.7433 9.58C77.9299 9.42 78.2233 9.34 78.6233 9.34C78.9966 9.34 79.2633 9.4 79.4233 9.52C79.5833 9.62667 79.6833 9.78 79.7233 9.98C79.7633 10.1667 79.7833 10.38 79.7833 10.62V17.94C79.7833 18.1667 79.7633 18.3733 79.7233 18.56C79.6833 18.7467 79.5766 18.8933 79.4033 19C79.2433 19.1067 78.9766 19.16 78.6033 19.16ZM74.9233 16.84C75.3766 16.84 75.7833 16.7267 76.1433 16.5C76.5033 16.2733 76.7899 15.9667 77.0033 15.58C77.2299 15.18 77.3433 14.74 77.3433 14.26C77.3433 13.74 77.2299 13.2867 77.0033 12.9C76.7766 12.5133 76.4766 12.2133 76.1033 12C75.7433 11.7733 75.3366 11.66 74.8833 11.66C74.3899 11.66 73.9499 11.78 73.5633 12.02C73.1766 12.2467 72.8699 12.56 72.6433 12.96C72.4299 13.3467 72.3233 13.7867 72.3233 14.28C72.3233 14.76 72.4366 15.1933 72.6633 15.58C72.8899 15.9667 73.1966 16.2733 73.5833 16.5C73.9833 16.7267 74.4299 16.84 74.9233 16.84ZM82.97 19.2C82.61 19.2 82.3433 19.14 82.17 19.02C82.01 18.9133 81.91 18.7667 81.87 18.58C81.83 18.3933 81.81 18.1867 81.81 17.96V10.54C81.81 10.3 81.83 10.0933 81.87 9.92C81.91 9.73333 82.01 9.59333 82.17 9.5C82.3433 9.39333 82.6167 9.34 82.99 9.34C83.35 9.34 83.61 9.38667 83.77 9.48C83.9433 9.57333 84.05 9.69333 84.09 9.84C84.1433 9.97333 84.17 10.1067 84.17 10.24L84.01 10.6C84.0767 10.4933 84.17 10.3667 84.29 10.22C84.41 10.06 84.57 9.90667 84.77 9.76C84.97 9.6 85.21 9.47333 85.49 9.38C85.77 9.27333 86.1033 9.22 86.49 9.22C86.65 9.22 86.8167 9.24 86.99 9.28C87.1767 9.30667 87.3567 9.35333 87.53 9.42C87.7167 9.47333 87.8833 9.54667 88.03 9.64C88.1767 9.73333 88.29 9.84667 88.37 9.98C88.45 10.1 88.49 10.24 88.49 10.4C88.49 10.8267 88.3833 11.1867 88.17 11.48C87.9567 11.7733 87.7033 11.92 87.41 11.92C87.21 11.92 87.0633 11.9 86.97 11.86C86.8767 11.82 86.7967 11.7733 86.73 11.72C86.6767 11.6667 86.59 11.62 86.47 11.58C86.3633 11.54 86.19 11.52 85.95 11.52C85.75 11.52 85.5433 11.5533 85.33 11.62C85.13 11.6867 84.9433 11.7867 84.77 11.92C84.5967 12.0533 84.4567 12.2267 84.35 12.44C84.2433 12.64 84.19 12.8733 84.19 13.14V18C84.19 18.2267 84.17 18.4333 84.13 18.62C84.09 18.7933 83.9833 18.9333 83.81 19.04C83.6367 19.1467 83.3567 19.2 82.97 19.2ZM92.1606 23.14C91.734 22.9533 91.4873 22.74 91.4206 22.5C91.354 22.2733 91.414 21.9667 91.6006 21.58L96.7606 10.02C96.9473 9.59333 97.1473 9.34 97.3606 9.26C97.574 9.16667 97.9006 9.21333 98.3406 9.4C98.754 9.58667 98.994 9.79333 99.0606 10.02C99.1406 10.2467 99.094 10.5533 98.9206 10.94L93.7206 22.56C93.5473 22.9867 93.354 23.2333 93.1406 23.3C92.9273 23.38 92.6006 23.3267 92.1606 23.14ZM94.0206 18.24L89.4006 11.14C89.1606 10.78 89.0606 10.48 89.1006 10.24C89.154 10 89.3673 9.76667 89.7406 9.54C90.154 9.28667 90.474 9.18667 90.7006 9.24C90.9406 9.29333 91.1806 9.50667 91.4206 9.88L95.0806 15.58L94.0206 18.24Z" fill="black"/>
</svg>
