<svg width="24" height="24" viewBox="0 0 24 24" fill="none" xmlns="http://www.w3.org/2000/svg">
<circle cx="12" cy="12" r="12" fill="#555555"/>
<path d="M5.25 11.25C5.25 8.42175 5.25 7.00725 6.129 6.129C7.00725 5.25 8.42175 5.25 11.25 5.25H12.75C15.5782 5.25 16.9927 5.25 17.871 6.129C18.75 7.00725 18.75 8.42175 18.75 11.25V12.75C18.75 15.5782 18.75 16.9927 17.871 17.871C16.9927 18.75 15.5782 18.75 12.75 18.75H11.25C8.42175 18.75 7.00725 18.75 6.129 17.871C5.25 16.9927 5.25 15.5782 5.25 12.75V11.25Z" stroke="white" stroke-width="2"/>
<path d="M15.375 9.75C15.9963 9.75 16.5 9.24632 16.5 8.625C16.5 8.00368 15.9963 7.5 15.375 7.5C14.7537 7.5 14.25 8.00368 14.25 8.625C14.25 9.24632 14.7537 9.75 15.375 9.75Z" fill="white"/>
<path d="M12 14.25C13.2426 14.25 14.25 13.2426 14.25 12C14.25 10.7574 13.2426 9.75 12 9.75C10.7574 9.75 9.75 10.7574 9.75 12C9.75 13.2426 10.7574 14.25 12 14.25Z" stroke="white" stroke-width="2"/>
</svg>
