<svg width="24" height="24" viewBox="0 0 24 24" fill="none" xmlns="http://www.w3.org/2000/svg">
<path d="M13 3C18.5 3 23 6.58 23 11C23 15.42 18.5 19 13 19C11.76 19 10.57 18.82 9.47 18.5C6.55 21 3 21 3 21C5.33 18.67 5.7 17.1 5.75 16.5C4.05 15.07 3 13.13 3 11C3 6.58 7.5 3 13 3Z" fill="#555555"/>
<path d="M10.419 14.14C10.0924 14.14 9.76236 14.0933 9.42902 14C9.09569 13.9 8.77569 13.7533 8.46902 13.56C8.16236 13.36 7.88902 13.1167 7.64902 12.83C7.41569 12.5367 7.22902 12.2 7.08902 11.82C6.94902 11.4333 6.87902 11.0067 6.87902 10.54C6.87902 10.08 6.94902 9.66667 7.08902 9.3C7.22902 8.92667 7.41569 8.6 7.64902 8.32C7.88902 8.04 8.15902 7.80667 8.45902 7.62C8.76569 7.43333 9.08569 7.29333 9.41902 7.2C9.75902 7.1 10.0957 7.04667 10.429 7.04C10.769 7.04 11.0624 7.07667 11.309 7.15C11.5557 7.22333 11.7557 7.30333 11.909 7.39C12.0624 7.47 12.1657 7.52667 12.219 7.56C12.3257 7.62667 12.4257 7.70333 12.519 7.79C12.619 7.87 12.6724 7.97 12.679 8.09C12.6857 8.17 12.6757 8.24333 12.649 8.31C12.6224 8.37 12.5857 8.43333 12.539 8.5C12.459 8.61333 12.379 8.69667 12.299 8.75C12.219 8.80333 12.139 8.83 12.059 8.83C11.9857 8.83 11.9157 8.81 11.849 8.77C11.789 8.73 11.7124 8.68 11.619 8.62C11.579 8.59333 11.5057 8.55333 11.399 8.5C11.299 8.44 11.1624 8.38667 10.989 8.34C10.8224 8.29333 10.619 8.27 10.379 8.27C10.0924 8.27 9.81236 8.32 9.53902 8.42C9.26569 8.52 9.01902 8.67 8.79902 8.87C8.58569 9.06333 8.41569 9.30667 8.28902 9.6C8.16236 9.88667 8.09902 10.2167 8.09902 10.59C8.09902 10.9633 8.16236 11.2967 8.28902 11.59C8.41569 11.8767 8.58569 12.12 8.79902 12.32C9.01902 12.5133 9.26569 12.66 9.53902 12.76C9.81236 12.86 10.0924 12.91 10.379 12.91C10.6057 12.91 10.799 12.89 10.959 12.85C11.1257 12.8033 11.2657 12.75 11.379 12.69C11.499 12.6233 11.589 12.5733 11.649 12.54C11.7224 12.4933 11.7924 12.45 11.859 12.41C11.9257 12.37 11.9957 12.35 12.069 12.35C12.149 12.35 12.2257 12.3767 12.299 12.43C12.379 12.4833 12.4557 12.57 12.529 12.69C12.5757 12.7633 12.6124 12.8333 12.639 12.9C12.6657 12.9667 12.6757 13.0367 12.669 13.11C12.6624 13.23 12.609 13.3333 12.509 13.42C12.4157 13.5 12.3157 13.57 12.209 13.63C12.1557 13.6633 12.0524 13.7233 11.899 13.81C11.7524 13.89 11.5557 13.9633 11.309 14.03C11.0624 14.1033 10.7657 14.14 10.419 14.14ZM14.1118 14.1C13.9251 14.1 13.7884 14.07 13.7018 14.01C13.6218 13.9567 13.5718 13.8833 13.5518 13.79C13.5318 13.6967 13.5218 13.5967 13.5218 13.49V7.52C13.5218 7.40667 13.5318 7.30667 13.5518 7.22C13.5784 7.12667 13.6318 7.05333 13.7118 7C13.7984 6.94667 13.9351 6.92 14.1218 6.92C14.3084 6.92 14.4418 6.95 14.5218 7.01C14.6084 7.06333 14.6618 7.13667 14.6818 7.23C14.7084 7.31667 14.7218 7.41667 14.7218 7.53V9.79C14.8551 9.63667 15.0251 9.49667 15.2318 9.37C15.4451 9.23667 15.7018 9.17 16.0018 9.17C16.4084 9.17 16.7718 9.27 17.0918 9.47C17.4118 9.66333 17.6651 9.93333 17.8518 10.28C18.0384 10.6267 18.1318 11.0333 18.1318 11.5V13.5C18.1318 13.6067 18.1218 13.7067 18.1018 13.8C18.0818 13.8867 18.0284 13.9567 17.9418 14.01C17.8618 14.0633 17.7284 14.09 17.5418 14.09C17.3551 14.09 17.2184 14.0633 17.1318 14.01C17.0451 13.9567 16.9918 13.8867 16.9718 13.8C16.9518 13.7067 16.9418 13.6 16.9418 13.48V11.49C16.9418 11.2567 16.9018 11.0533 16.8218 10.88C16.7418 10.7067 16.6218 10.5733 16.4618 10.48C16.3084 10.38 16.1151 10.33 15.8818 10.33C15.5684 10.33 15.3051 10.4233 15.0918 10.61C14.8784 10.79 14.7551 11.0233 14.7218 11.31V13.5C14.7218 13.6067 14.7084 13.7067 14.6818 13.8C14.6618 13.8933 14.6084 13.9667 14.5218 14.02C14.4418 14.0733 14.3051 14.1 14.1118 14.1Z" fill="white"/>
</svg>
